<svg id="Capa_1" enable-background="new 0 0 512 512" height="512" viewBox="0 0 512 512" width="512" xmlns="http://www.w3.org/2000/svg"><g><path d="m337.38 380.559-25.069-10.737c-9.112-3.902-15.021-12.861-15.021-22.773v-16.723h-82.58v16.722c0 9.913-5.909 18.871-15.021 22.774l-25.07 10.737-1.553 87.441h165.867z" fill="#f6d190"/><path d="m214.71 330.326c12.714 5.303 26.654 8.255 41.29 8.255s28.577-2.951 41.29-8.255v-33.036h-82.58z" fill="#ecbd83"/><path d="m371.607 164.004-207.413-69.123c-14.933 19.477-23.807 43.842-23.807 70.281v41.291h231.226v-41.291c0-.387-.002-.773-.006-1.158z" fill="#785353"/><path d="m359.226 189.936h-12.387c-9.122 0-16.516-7.395-16.516-16.516v-.033-8.225c0-18.243-14.789-33.032-33.032-33.032h-82.581c-6.018 0-11.659 1.609-16.518 4.42l-17.192 80.45c0 50.168 25.612 103.781 75.781 103.781 5.678 0 10.452.763 15.841-.234 42.23-7.81 74.216-44.831 74.215-89.322h11.21c10.8 0 20.641-7.771 21.716-18.516 1.238-12.358-8.433-22.773-20.537-22.773z" fill="#ffe09f"/><path d="m198.194 231.226v-94.673c-9.832 5.722-16.516 16.413-16.516 28.608v8.258c0 9.121-7.395 16.516-16.516 16.516h-11.208c-10.799 0-20.641 7.77-21.717 18.515-1.238 12.358 8.433 22.775 20.538 22.775h12.387v.001c0 50.168 40.669 90.838 90.838 90.838 5.649 0 11.259-.531 16.623-1.517-42.272-7.776-74.429-44.801-74.429-89.321z" fill="#f6d190"/><path d="m206.46 231.226c-2.903 0-5.718-1.532-7.226-4.246-2.218-3.988-.782-9.016 3.21-11.23l16.734-9.298-16.734-9.298c-3.992-2.214-5.427-7.242-3.21-11.23 2.218-3.98 7.25-5.427 11.226-3.206l29.726 16.516c2.621 1.456 4.25 4.218 4.25 7.218s-1.629 5.762-4.25 7.218l-29.726 16.516c-1.266.705-2.645 1.04-4 1.04z" fill="#e2a975"/><path d="m305.54 231.226c-1.355 0-2.734-.335-4-1.04l-29.726-16.516c-2.621-1.456-4.25-4.218-4.25-7.218s1.629-5.762 4.25-7.218l29.726-16.516c3.984-2.222 9.008-.774 11.226 3.206 2.218 3.988.782 9.016-3.21 11.23l-16.734 9.298 16.734 9.298c3.992 2.214 5.427 7.242 3.21 11.23-1.508 2.714-4.322 4.246-7.226 4.246z" fill="#e2a975"/><path d="m82.573 313.806c-4.105 0-7.661-3.056-8.185-7.234-.565-4.524 2.645-8.653 7.169-9.218l66.065-8.258c4.524-.605 8.645 2.645 9.218 7.169.565 4.524-2.645 8.653-7.169 9.218l-66.065 8.258c-.348.045-.695.065-1.033.065z" fill="#dbeaff"/><path d="m140.395 346.839c-2.669 0-5.29-1.29-6.879-3.677-2.532-3.794-1.508-8.923 2.29-11.452l24.774-16.516c3.806-2.536 8.927-1.508 11.452 2.29 2.532 3.794 1.508 8.923-2.29 11.452l-24.774 16.516c-1.412.939-3 1.387-4.573 1.387z" fill="#edf4ff"/><path d="m132.129 272.516h-16.516c-4.565 0-8.258-3.698-8.258-8.258s3.694-8.258 8.258-8.258h16.516c4.565 0 8.258 3.698 8.258 8.258s-3.693 8.258-8.258 8.258z" fill="#edf4ff"/><path d="m272.516 280.774h-33.032c-4.561 0-8.258-3.697-8.258-8.258 0-13.682 11.092-24.774 24.774-24.774 13.682 0 24.774 11.092 24.774 24.774 0 4.561-3.697 8.258-8.258 8.258z" fill="#b57f5f"/><path d="m255.992 429.419c-1.242 0-2.5-.278-3.685-.871-4.081-2.04-5.734-7-3.694-11.081l10.54-21.081h-11.411c-2.863 0-5.516-1.484-7.024-3.915-1.508-2.435-1.645-5.476-.363-8.036l16.516-33.032c2.04-4.081 7-5.734 11.081-3.694s5.734 7 3.694 11.081l-10.54 21.081h11.411c2.863 0 5.516 1.484 7.024 3.915 1.508 2.435 1.645 5.476.363 8.036l-16.516 33.032c-1.453 2.896-4.364 4.565-7.396 4.565z" fill="#ff8086"/><path d="m429.427 313.806c-.339 0-.685-.02-1.032-.065l-66.065-8.258c-4.524-.565-7.734-4.694-7.169-9.218s4.669-7.774 9.218-7.169l66.065 8.258c4.524.565 7.734 4.694 7.169 9.218-.524 4.178-4.081 7.234-8.186 7.234z" fill="#dbeaff"/><path d="m371.605 346.839c-1.573 0-3.161-.448-4.573-1.387l-24.774-16.516c-3.798-2.528-4.823-7.657-2.29-11.452 2.524-3.798 7.637-4.827 11.452-2.29l24.774 16.516c3.798 2.528 4.823 7.657 2.29 11.452-1.589 2.386-4.21 3.677-6.879 3.677z" fill="#edf4ff"/><path d="m396.387 272.516h-16.516c-4.565 0-8.258-3.698-8.258-8.258s3.694-8.258 8.258-8.258h16.516c4.565 0 8.258 3.698 8.258 8.258s-3.693 8.258-8.258 8.258z" fill="#edf4ff"/><circle cx="256" cy="66.065" fill="#785353" r="66.065"/><path d="m256 49.548c-37.414 0-70.675 17.77-91.806 45.332 48.318 43.624 112.421 70.281 182.645 70.281 8.337 0 16.622-.424 24.769-1.157-.634-63.308-52.151-114.456-115.608-114.456z" fill="#966a5b"/><path d="m412.903 495.484v-55.347c0-16.521-9.848-31.452-25.035-37.956l-35.272-14.984s-37.249 46.088-79.637 73.913c-10.335 6.784-23.584 6.784-33.919 0-42.389-27.826-79.637-73.913-79.637-73.913l-35.272 14.984c-15.187 6.504-25.035 21.434-25.035 37.956v55.347c0 9.121 7.395 16.516 16.516 16.516h280.774c9.123 0 16.517-7.395 16.517-16.516z" fill="#dad8db"/><path d="m174.619 380.559-15.249 6.531c.018.035.015.074.034.108 6.347 11.569 30.508 51.581 75 80.786 6.556 4.306 14.081 6.46 21.597 6.46s15.04-2.153 21.597-6.46c44.492-29.206 68.653-69.218 75-80.786.019-.034.016-.073.034-.108l-15.25-6.531c-6.799 12.095-29.008 47.463-68.848 73.618-7.613 5-17.452 5-25.065 0-39.842-26.156-62.051-61.523-68.85-73.618z" fill="#eceaec"/></g></svg>