<svg id="Capa_1" enable-background="new 0 0 512 512" height="512" viewBox="0 0 512 512" width="512" xmlns="http://www.w3.org/2000/svg"><g><path d="m330.323 315.745-14.526-5.959c-6.2-2.543-10.248-8.58-10.248-15.28v-25.907h-99.097v25.907c0 6.701-4.048 12.737-10.248 15.28l-14.526 5.959v31.094h148.645z" fill="#f6d190"/><path d="m400.665 344.599-34.397-14.11-48.444-19.871c-15.131 17.113-37.185 27.963-61.824 27.963s-46.694-10.849-61.824-27.963l-48.444 19.871-34.397 14.11c-12.399 5.086-20.496 17.159-20.496 30.561v120.324c0 9.122 7.395 16.516 16.516 16.516h115.613l32.865-17.667 33.199 17.667h115.613c9.122 0 16.516-7.395 16.516-16.516v-120.324c0-13.401-8.097-25.475-20.496-30.561z" fill="#edf4ff"/><path d="m256 495.484 72.238-180.594-10.414-4.272c-15.131 17.113-37.185 27.963-61.824 27.963s-46.694-10.849-61.824-27.963l-10.414 4.272z" fill="#a4ccff"/><path d="m189.935 495.484h-49.548c-4.561 0-8.258-3.697-8.258-8.258v-33.032c0-4.561 3.697-8.258 8.258-8.258h49.548c4.561 0 8.258 3.697 8.258 8.258v33.032c.001 4.561-3.697 8.258-8.258 8.258z" fill="#fff"/><path d="m206.452 268.599c14.832 7.738 31.661 12.175 49.548 12.175s34.716-4.437 49.548-12.175v-29.115h-99.097v29.115z" fill="#ecbd83"/><path d="m323 140.387h40.355v-41.29l-40.355-8.258z" fill="#966a5b"/><path d="m188.677 140.387h-40.032v-41.29l40.032-8.258z" fill="#966a5b"/><path d="m359.226 132.129h-12.387l-16.516 11.871v-53.161h-132.129v82.581h161.032c11.402 0 20.645-9.243 20.645-20.645 0-11.403-9.243-20.646-20.645-20.646z" fill="#ffe09f"/><path d="m181.677 90.839v41.29h-28.903c-11.402 0-20.645 9.243-20.645 20.645s9.243 20.645 20.645 20.645h53.677v-82.58z" fill="#f6d190"/><path d="m272.516 156.903c-4.565 0-8.258-3.694-8.258-8.258 0-4.556-3.702-8.258-8.258-8.258s-8.258 3.702-8.258 8.258c0 4.565-3.694 8.258-8.258 8.258s-8.258-3.694-8.258-8.258c0-13.661 11.113-24.774 24.774-24.774s24.774 11.113 24.774 24.774c0 4.565-3.693 8.258-8.258 8.258z" fill="#fff5d7"/><path d="m297.29 0h-82.58c-2.797 0-5.552.174-8.258.511l-18.119 46.489 18.118 52.097h156.903v-33.033c.001-36.486-29.577-66.064-66.064-66.064z" fill="#c3ddff"/><path d="m330.323 132.129c0 18.243-14.789 33.032-33.032 33.032h-41.291-41.29c-18.243 0-33.032-14.789-33.032-33.032l-6.177 38.278c0 50.016 28.791 90.678 78.798 91.593.574.011 1.13-.056 1.702-.056s1.128.067 1.702.056c6.546-.12 12.905 1.283 19.015-.197 40.566-9.83 70.122-47.927 70.122-91.396v-38.278z" fill="#faf5dc"/><path d="m206.452 170.407v-6.413c-14.222-3.684-24.774-16.49-24.774-31.864h-16.516v38.278c0 50.016 39.13 92.92 89.137 93.836.574.011 1.13-.056 1.702-.056s1.128.067 1.702.056c6.525-.119 12.923-.968 19.015-2.44-40.597-9.809-70.266-47.908-70.266-91.397z" fill="#f5ebcd"/><path d="m214.71 181.677c-18.218 0-33.032-14.815-33.032-33.032v-16.516c0-4.565 3.694-8.258 8.258-8.258h49.548c4.565 0 8.258 3.694 8.258 8.258v16.516c0 18.218-14.815 33.032-33.032 33.032z" fill="#fff"/><path d="m198.194 140.387v8.258c0 9.105 7.411 16.516 16.516 16.516s16.516-7.411 16.516-16.516v-8.258z" fill="#c3ddff"/><path d="m297.29 181.677c-18.218 0-33.032-14.815-33.032-33.032v-16.516c0-4.565 3.694-8.258 8.258-8.258h49.548c4.565 0 8.258 3.694 8.258 8.258v16.516c.001 18.218-14.814 33.032-33.032 33.032z" fill="#fff"/><path d="m280.774 140.387v8.258c0 9.105 7.411 16.516 16.516 16.516s16.516-7.411 16.516-16.516v-8.258z" fill="#c3ddff"/><path d="m361.365 316.941-31.138-15.569c-4.37-2.185-9.671-.119-11.41 4.446l-55.099 144.635c-2.701 7.091-12.733 7.091-15.434 0l-55.099-144.635c-1.739-4.566-7.041-6.632-11.41-4.446l-31.138 15.569c-5.041 2.521-6.132 9.24-2.146 13.225l24.93 24.931-13.858 20.787c-1.644 2.466-1.84 5.623-.515 8.274l63.92 127.842h66.065l63.921-127.843c1.325-2.651 1.129-5.808-.515-8.274l-13.858-20.787 24.93-24.931c3.986-3.985 2.895-10.704-2.146-13.224z" fill="#dbeaff"/><path d="m148.645 66.065v33.032h57.806v-98.585c-32.58 4.072-57.806 31.869-57.806 65.553z" fill="#a4ccff"/></g></svg>