<svg id="Capa_1" enable-background="new 0 0 512 512" height="512" viewBox="0 0 512 512" width="512" xmlns="http://www.w3.org/2000/svg"><g><path d="m274.356 286.422-6.697-2.06c-6.93-2.132-11.659-8.535-11.659-15.786v-17.683h-99.097v17.683c0 7.251-4.729 13.654-11.659 15.786l-6.697 2.06-7.933 45.578h151.675z" fill="#f6d190"/><path d="m340.037 306.632-33.06-10.172-100.525 46.54-100.525-46.541-33.06 10.172c-13.86 4.265-23.318 17.07-23.318 31.572v58.184c0 9.121 7.395 16.516 16.516 16.516h280.774c9.121 0 16.516-7.395 16.516-16.516v-58.184c0-14.501-9.458-27.307-23.318-31.571z" fill="#dad8db"/><path d="m206.452 355.097c43.116 0 80.649-23.649 100.525-58.638l-32.62-10.037c-14.906 21.522-39.743 35.643-67.904 35.643s-52.998-14.121-67.904-35.643l-32.62 10.037c19.874 34.989 57.407 58.638 100.523 58.638z" fill="#eceaec"/><path d="m247.742 0h-65.154c-9.143 0-17.062 4.983-21.335 12.361-1.479 2.553-4.164 4.155-7.115 4.155h-5.493l5.021 123.871h151.882v-82.581c0-31.925-25.881-57.806-57.806-57.806z" fill="#966a5b"/><path d="m107.355 57.806v82.581h57.806v-107.355c0-9.122-7.395-16.516-16.516-16.516-22.804 0-41.29 18.487-41.29 41.29z" fill="#785353"/><path d="m313.58 145.871c-1.321-8.121-8.947-13.742-17.174-13.742h-7.374c-9.122 0-16.516-7.395-16.516-16.516v-24.774c0-13.682-11.092-24.774-24.774-24.774h-82.581l-19.495 103.269 60.785 26 82.581-30.172h8.258c10.031-.001 17.974-8.943 16.29-19.291z" fill="#ffe09f"/><path d="m165.161 165.161v-99.097c-13.683 0-24.774 11.092-24.774 24.774v24.774c0 9.122-7.395 16.516-16.516 16.516h-7.374c-8.228 0-15.853 5.622-17.174 13.742-1.684 10.348 6.259 19.29 16.29 19.29h8.258l21.462 9.505z" fill="#f6d190"/><g><path d="m173.419 148.645c-4.565 0-8.258-3.698-8.258-8.258v-8.258c0-4.56 3.694-8.258 8.258-8.258s8.258 3.698 8.258 8.258v8.258c0 4.561-3.693 8.258-8.258 8.258z" fill="#6e4848"/></g><g><path d="m239.484 148.645c-4.565 0-8.258-3.698-8.258-8.258v-8.258c0-4.56 3.694-8.258 8.258-8.258s8.258 3.698 8.258 8.258v8.258c0 4.561-3.694 8.258-8.258 8.258z" fill="#6e4848"/></g><path d="m156.903 250.892c14.588 8.451 31.477 13.366 49.548 13.366s34.961-4.915 49.548-13.366v-27.924h-99.097v27.924z" fill="#ecbd83"/><path d="m280.225 123.889c-4.389.284-7.709 4.124-7.709 8.523v24.75c0 4.418-3.582 8-8 8h-99.355c-27.661 19.339-3.979 81.304 41.917 80.964 6.945-.052 13.678.641 20.102-1.045 35.694-9.372 61.852-42.366 61.852-80.955v-31.996c0-4.744-3.997-8.552-8.807-8.241z" fill="#faf5dc"/><path d="m165.161 165.161h-16.774c-4.418 0-8-3.582-8-8v-24.75c0-4.399-3.319-8.239-7.709-8.523-4.81-.311-8.807 3.497-8.807 8.24v33.032c0 45.608 36.973 82.581 82.581 82.581 7.143 0 14.118-.958 20.728-2.662-35.598-9.18-62.019-41.452-62.019-79.918z" fill="#f5ebcd"/><g><path d="m462.452 404.645c0-59.29-48.064-107.355-107.355-107.355-26.149 0-50.114 9.349-68.736 24.886-23.602 19.693-35.434 49.327-35.434 82.468 0 59.29 44.879 103.192 104.17 103.192 33.151 0 62.793-10.863 82.485-34.476 15.528-18.618 24.87-42.575 24.87-68.715z" fill="#faf5dc"/><path d="m289.032 396.387h132.129v16.516h-132.129z" fill="#ffd064" transform="matrix(-.707 .707 -.707 -.707 892.315 439.681)"/><circle cx="401.811" cy="357.93" fill="#ffe07d" r="8.258"/><circle cx="308.382" cy="451.36" fill="#ffe07d" r="8.258"/><path d="m289.032 396.387h132.129v16.516h-132.129z" fill="#ffd064" transform="matrix(.707 .707 -.707 .707 390.133 -132.574)"/><circle cx="308.382" cy="357.93" fill="#ffe07d" r="8.258"/><circle cx="401.811" cy="451.36" fill="#ffe07d" r="8.258"/><path d="m289.032 396.387h132.129v16.516h-132.129z" fill="#ffd064" transform="matrix(0 1 -1 0 759.742 49.548)"/><circle cx="355.097" cy="338.581" fill="#ffe07d" r="8.258"/><circle cx="355.097" cy="470.71" fill="#ffe07d" r="8.258"/><path d="m289.032 396.387h132.129v16.516h-132.129z" fill="#ffd064"/><path d="m396.387 404.645c0-22.804-18.486-41.29-41.29-41.29-8.225 0-15.888 2.405-22.325 6.55-11.41 7.347-15.754 20.161-15.754 34.741 0 22.804 15.275 38.667 38.079 38.667 14.598 0 27.427-4.953 34.769-16.387 4.127-6.428 6.521-14.075 6.521-22.281z" fill="#ff8086"/><path d="m367.484 433.548c-22.804 0-41.29-18.486-41.29-41.29 0-8.226 2.433-15.916 6.579-22.354-11.408 7.348-18.966 20.163-18.966 34.741 0 22.804 18.486 41.29 41.29 41.29 14.578 0 27.421-7.602 34.769-19.01-6.438 4.147-14.156 6.623-22.382 6.623z" fill="#e5646e"/><g fill="#ffe07d"><path d="m369.202 405.677c-4.565 0-8.29-3.698-8.29-8.258s3.653-8.258 8.218-8.258h.073c4.565 0 8.258 3.698 8.258 8.258s-3.695 8.258-8.259 8.258z"/><path d="m355.089 426.839c-4.565 0-8.29-3.698-8.29-8.258s3.661-8.258 8.226-8.258h.065c4.565 0 8.258 3.698 8.258 8.258s-3.695 8.258-8.259 8.258z"/><path d="m340.984 405.677c-4.565 0-8.298-3.698-8.298-8.258s3.661-8.258 8.226-8.258h.073c4.565 0 8.258 3.698 8.258 8.258s-3.695 8.258-8.259 8.258z"/><circle cx="289.032" cy="404.645" r="8.258"/><circle cx="421.161" cy="404.645" r="8.258"/></g><path d="m368.86 498.236c-59.291 0-107.355-48.065-107.355-107.355 0-26.141 9.327-50.086 24.856-68.705-23.612 19.693-38.619 49.319-38.619 82.468 0 59.29 48.065 107.355 107.355 107.355 33.15 0 62.792-15.027 82.485-38.639-18.619 15.529-42.581 24.876-68.722 24.876z" fill="#f5ebcd"/></g></g></svg>