<svg id="Capa_1" enable-background="new 0 0 512 512" height="512" viewBox="0 0 512 512" width="512" xmlns="http://www.w3.org/2000/svg"><g><path d="m470.71 388.129h-8.258v-41.29h-16.516v41.29h-8.258c-13.661 0-24.774 11.113-24.774 24.774v41.29h16.516v-41.29c0-4.556 3.702-8.258 8.258-8.258h33.032c4.556 0 8.258 3.702 8.258 8.258v41.29h16.516v-41.29c0-13.661-11.113-24.774-24.774-24.774z" fill="#ffe4e5"/><circle cx="421.161" cy="454.194" fill="#ffcacc" r="16.516"/><path d="m421.161 478.968c-9.122 0-16.516 7.395-16.516 16.516v8.258c0 4.561 3.697 8.258 8.258 8.258h16.516c4.561 0 8.258-3.697 8.258-8.258v-8.258c0-9.122-7.394-16.516-16.516-16.516z" fill="#ffcacc"/><circle cx="487.226" cy="454.194" fill="#ffcacc" r="16.516"/><path d="m487.226 478.968c-9.122 0-16.516 7.395-16.516 16.516v8.258c0 4.561 3.697 8.258 8.258 8.258h16.516c4.561 0 8.258-3.697 8.258-8.258v-8.258c0-9.122-7.395-16.516-16.516-16.516z" fill="#ffcacc"/><path d="m338.581 388.129h-8.258v-41.29h-16.516v41.29h-8.258c-13.661 0-24.774 11.113-24.774 24.774v41.29h16.516v-41.29c0-4.556 3.702-8.258 8.258-8.258h33.032c4.556 0 8.258 3.702 8.258 8.258v41.29h16.516v-41.29c0-13.661-11.113-24.774-24.774-24.774z" fill="#ffe4e5"/><circle cx="289.032" cy="454.194" fill="#ffcacc" r="16.516"/><path d="m289.032 478.968c-9.122 0-16.516 7.395-16.516 16.516v8.258c0 4.561 3.697 8.258 8.258 8.258h16.516c4.561 0 8.258-3.697 8.258-8.258v-8.258c0-9.122-7.394-16.516-16.516-16.516z" fill="#ffcacc"/><circle cx="355.097" cy="454.194" fill="#ffcacc" r="16.516"/><path d="m355.097 478.968c-9.122 0-16.516 7.395-16.516 16.516v8.258c0 4.561 3.697 8.258 8.258 8.258h16.516c4.561 0 8.258-3.697 8.258-8.258v-8.258c0-9.122-7.395-16.516-16.516-16.516z" fill="#ffcacc"/><path d="m206.452 388.129h-8.258v-41.29h-16.516v41.29h-8.258c-13.661 0-24.774 11.113-24.774 24.774v41.29h16.516v-41.29c0-4.556 3.702-8.258 8.258-8.258h33.032c4.556 0 8.258 3.702 8.258 8.258v41.29h16.516v-41.29c0-13.661-11.113-24.774-24.774-24.774z" fill="#ffe4e5"/><g fill="#ffcacc"><circle cx="156.903" cy="454.194" r="16.516"/><path d="m156.903 478.968c-9.122 0-16.516 7.395-16.516 16.516v8.258c0 4.561 3.697 8.258 8.258 8.258h16.516c4.561 0 8.258-3.697 8.258-8.258v-8.258c0-9.122-7.394-16.516-16.516-16.516z"/><circle cx="222.968" cy="454.194" r="16.516"/><path d="m222.968 478.968c-9.122 0-16.516 7.395-16.516 16.516v8.258c0 4.561 3.697 8.258 8.258 8.258h16.516c4.561 0 8.258-3.697 8.258-8.258v-8.258c0-9.122-7.395-16.516-16.516-16.516z"/><path d="m437.677 189.935h-173.419v-49.548h-16.516v49.548h-173.419c-13.661 0-24.774 11.113-24.774 24.774v41.291h16.516v-41.29c0-4.556 3.702-8.258 8.258-8.258h107.355v49.548h16.516v-49.548h115.613v49.548h16.516v-49.548h107.355c4.556 0 8.258 3.702 8.258 8.258v41.29h16.516v-41.29c0-13.662-11.113-24.775-24.775-24.775z"/></g><path d="m74.323 388.129h-8.258v-41.29h-16.517v41.29h-8.258c-13.661 0-24.774 11.113-24.774 24.774v41.29h16.516v-41.29c0-4.556 3.702-8.258 8.258-8.258h33.032c4.556 0 8.258 3.702 8.258 8.258v41.29h16.516v-41.29c.001-13.661-11.112-24.774-24.773-24.774z" fill="#ffe4e5"/><path d="m266.377 74.323h-20.754c-8.441 0-16.259 2.67-22.655 7.212l-9.552 31.959v18.635c0 4.327 3.508 7.834 7.834 7.834h76.464c4.327 0 7.834-3.508 7.834-7.834v-18.635c0-21.634-17.537-39.171-39.171-39.171z" fill="#ff8086"/><path d="m289.032 33.032c0 5.896-1.545 11.432-4.252 16.224-5.669 10.034-16.433 14.369-28.78 14.369-18.243 0-28.75-12.35-28.75-30.593 0-12.302 2.443-23.034 12.417-28.719 4.817-2.745 10.392-4.313 16.333-4.313 18.243 0 33.032 14.789 33.032 33.032z" fill="#ff8086"/><circle cx="24.774" cy="454.194" fill="#ffcacc" r="16.516"/><path d="m57.806 305.548c-6.018 0-11.659 1.609-16.518 4.42l-8.421 28.612c0 4.561 3.697 8.258 8.258 8.258h41.456c4.561 0 8.258-3.697 8.258-8.258 0-18.243-14.789-33.032-33.033-33.032z" fill="#ff9a9f"/><path d="m24.774 478.968c-9.122 0-16.516 7.395-16.516 16.516v8.258c0 4.561 3.697 8.258 8.258 8.258h16.516c4.561 0 8.258-3.697 8.258-8.258v-8.258c0-9.122-7.394-16.516-16.516-16.516z" fill="#ffcacc"/><path d="m247.742 132.129c-13.682 0-24.774-11.092-24.774-24.774v-25.822c-9.966 7.101-16.516 18.791-16.516 31.961v27.317c0 4.327 3.507 7.834 7.834 7.834h83.428c4.327 0 7.834-3.507 7.834-7.834v-8.682z" fill="#e5646e"/><path d="m268.387 53.677c-18.243 0-33.032-14.789-33.032-33.032 0-5.928 1.578-11.521 4.313-16.331-9.991 5.68-16.7 16.403-16.7 28.719 0 18.243 14.789 33.032 33.032 33.032 12.315 0 23.1-6.817 28.78-16.808-4.81 2.734-10.464 4.42-16.393 4.42z" fill="#e5646e"/><path d="m82.581 272.516c0 4.034-.964 7.842-2.674 11.207-4.091 8.051-12.451 10.61-22.1 10.61-13.682 0-22.806-8.135-22.806-21.817 0-9.633 3.53-17.982 11.559-22.08 3.375-1.723 7.198-2.694 11.247-2.694 13.682 0 24.774 11.092 24.774 24.774z" fill="#ff9a9f"/><path d="m68.645 286.452c-13.682 0-24.774-11.092-24.774-24.774 0-4.038.974-7.873 2.688-11.241-8.044 4.093-13.527 12.436-13.527 22.08 0 13.682 11.092 24.774 24.774 24.774 9.644 0 18.007-5.523 22.1-13.567-3.368 1.714-7.223 2.728-11.261 2.728z" fill="#ff8086"/><path d="m41.29 309.973c-9.832 5.722-16.516 16.413-16.516 28.608v8.258c0 4.561 3.697 8.258 8.258 8.258h49.548c4.561 0 8.258-3.697 8.258-8.258v-8.258h-33.032c-9.122 0-16.516-7.395-16.516-16.516z" fill="#ff8086"/><circle cx="90.839" cy="454.194" fill="#ffcacc" r="16.516"/><path d="m90.839 478.968c-9.122 0-16.516 7.395-16.516 16.516v8.258c0 4.561 3.697 8.258 8.258 8.258h16.516c4.561 0 8.258-3.697 8.258-8.258v-8.258c0-9.122-7.395-16.516-16.516-16.516z" fill="#ffcacc"/><path d="m189.935 305.548c-6.018 0-11.659 1.609-16.518 4.42l-8.421 28.612c0 4.561 3.697 8.258 8.258 8.258h41.456c4.561 0 8.258-3.697 8.258-8.258 0-18.243-14.789-33.032-33.033-33.032z" fill="#ff9a9f"/><path d="m214.71 272.516c0 4.034-.964 7.842-2.674 11.207-4.091 8.051-12.451 10.61-22.1 10.61-13.682 0-22.806-8.135-22.806-21.817 0-9.633 3.53-17.982 11.559-22.08 3.375-1.723 7.198-2.694 11.247-2.694 13.682 0 24.774 11.092 24.774 24.774z" fill="#ff9a9f"/><path d="m200.774 286.452c-13.682 0-24.774-11.092-24.774-24.774 0-4.038.974-7.873 2.688-11.241-8.044 4.093-13.527 12.436-13.527 22.08 0 13.682 11.092 24.774 24.774 24.774 9.644 0 18.007-5.523 22.1-13.567-3.368 1.714-7.223 2.728-11.261 2.728z" fill="#ff8086"/><path d="m173.419 309.973c-9.832 5.722-16.516 16.413-16.516 28.608v8.258c0 4.561 3.697 8.258 8.258 8.258h49.548c4.561 0 8.258-3.697 8.258-8.258v-8.258h-33.032c-9.122 0-16.516-7.395-16.516-16.516z" fill="#ff8086"/><path d="m322.064 305.548c-6.018 0-11.659 1.609-16.518 4.42l-8.421 28.612c0 4.561 3.697 8.258 8.258 8.258h41.456c4.561 0 8.258-3.697 8.258-8.258 0-18.243-14.789-33.032-33.033-33.032z" fill="#ff9a9f"/><path d="m346.839 272.516c0 4.034-.964 7.842-2.674 11.207-4.091 8.051-12.451 10.61-22.1 10.61-13.682 0-22.806-8.135-22.806-21.817 0-9.633 3.53-17.982 11.559-22.08 3.375-1.723 7.198-2.694 11.247-2.694 13.682 0 24.774 11.092 24.774 24.774z" fill="#ff9a9f"/><path d="m332.903 286.452c-13.682 0-24.774-11.092-24.774-24.774 0-4.038.974-7.873 2.688-11.241-8.044 4.093-13.527 12.436-13.527 22.08 0 13.682 11.092 24.774 24.774 24.774 9.644 0 18.007-5.523 22.1-13.567-3.368 1.714-7.223 2.728-11.261 2.728z" fill="#ff8086"/><path d="m305.548 309.973c-9.832 5.722-16.516 16.413-16.516 28.608v8.258c0 4.561 3.697 8.258 8.258 8.258h49.548c4.561 0 8.258-3.697 8.258-8.258v-8.258h-33.032c-9.122 0-16.516-7.395-16.516-16.516z" fill="#ff8086"/><path d="m454.193 305.548c-6.018 0-11.659 1.609-16.518 4.42l-8.421 28.612c0 4.561 3.697 8.258 8.258 8.258h41.456c4.561 0 8.258-3.697 8.258-8.258 0-18.243-14.789-33.032-33.033-33.032z" fill="#ff9a9f"/><path d="m478.968 272.516c0 4.034-.964 7.842-2.674 11.207-4.091 8.051-12.451 10.61-22.1 10.61-13.682 0-22.806-8.135-22.806-21.817 0-9.633 3.53-17.982 11.559-22.08 3.375-1.723 7.198-2.694 11.247-2.694 13.682 0 24.774 11.092 24.774 24.774z" fill="#ff9a9f"/><path d="m465.032 286.452c-13.682 0-24.774-11.092-24.774-24.774 0-4.038.974-7.873 2.688-11.241-8.044 4.093-13.527 12.436-13.527 22.08 0 13.682 11.092 24.774 24.774 24.774 9.644 0 18.007-5.523 22.1-13.567-3.368 1.714-7.223 2.728-11.261 2.728z" fill="#ff8086"/><path d="m437.677 309.973c-9.832 5.722-16.516 16.413-16.516 28.608v8.258c0 4.561 3.697 8.258 8.258 8.258h49.548c4.561 0 8.258-3.697 8.258-8.258v-8.258h-33.032c-9.122 0-16.516-7.395-16.516-16.516z" fill="#ff8086"/></g></svg>