<svg id="Capa_1" enable-background="new 0 0 512 512" height="512" viewBox="0 0 512 512" width="512" xmlns="http://www.w3.org/2000/svg"><g><path d="m343.098 418.153-31.68-13.568c-8.967-3.841-14.782-12.657-14.782-22.412v-16.457h-81.271v16.457c0 9.756-5.815 18.572-14.783 22.413l-31.68 13.568-51.062 85.346h276.32z" fill="#f6d190"/><path d="m215.365 365.716c12.512 5.219 26.231 8.124 40.635 8.124s28.123-2.904 40.635-8.124v-32.512h-81.271v32.512z" fill="#ecbd83"/><path d="m369.773 202.032-204.094-68.063c-14.713 19.174-23.458 43.167-23.458 69.203v40.635h227.558v-40.635c0-.381-.002-.761-.006-1.14z" fill="#785353"/><path d="m357.588 227.553h-12.191c-8.977 0-16.254-7.277-16.254-16.254v-.033-8.094c0-17.954-14.554-32.508-32.508-32.508h-81.271c-5.922 0-11.474 1.583-16.256 4.35l-23.608 88.486c0 49.372 31.127 92.25 80.5 92.25 5.598 0 11.076 1.321 16.39.337 41.545-7.698 73.008-44.124 73.007-87.899h11.032c10.629 0 20.313-7.647 21.372-18.222 1.217-12.163-8.3-22.413-20.213-22.413z" fill="#ffe09f"/><path d="m199.111 268.188v-93.173c-9.676 5.632-16.254 16.154-16.254 28.156v8.127c0 8.977-7.277 16.254-16.254 16.254h-11.03c-10.628 0-20.313 7.646-21.373 18.221-1.218 12.162 8.299 22.414 20.212 22.414h12.191v.001c0 49.372 40.024 89.397 89.397 89.397 5.559 0 11.111-.528 16.39-1.499-41.601-7.652-73.279-44.084-73.279-87.898z" fill="#f6d190"/><circle cx="256" cy="105.647" fill="#785353" r="65.016"/><path d="m256 89.393c-36.82 0-69.525 17.45-90.321 44.575 47.551 42.932 110.609 69.204 179.718 69.204 8.204 0 16.359-.419 24.376-1.14-.623-62.304-51.322-112.639-113.773-112.639z" fill="#966a5b"/><path d="m215.365 251.934c-4.492 0-8.127-3.639-8.127-8.127v-8.127c0-4.488 3.635-8.127 8.127-8.127s8.127 3.639 8.127 8.127v8.127c0 4.488-3.635 8.127-8.127 8.127z" fill="#6e4848"/><path d="m296.635 251.934c-4.492 0-8.127-3.639-8.127-8.127v-8.127c0-4.488 3.635-8.127 8.127-8.127s8.127 3.639 8.127 8.127v8.127c0 4.488-3.635 8.127-8.127 8.127z" fill="#6e4848"/><path d="m256 305.435c-7.921 0-15.381-2.222-21-6.27-3.643-2.619-4.476-7.698-1.849-11.341 2.619-3.651 7.698-4.476 11.341-1.849 5.667 4.079 17.349 4.079 23.016 0 3.643-2.611 8.722-1.794 11.341 1.849 2.627 3.643 1.794 8.722-1.849 11.341-5.619 4.047-13.079 6.27-21 6.27z" fill="#e2a975"/><path d="m442.922 512c-4.492 0-8.127-3.635-8.127-8.127 0-4.492 3.635-8.127 8.127-8.127s8.127 3.635 8.127 8.127c0 4.492-3.635 8.127-8.127 8.127z" fill="#edf4ff"/><path d="m442.795 477.738c-4.278 0-7.857-3.341-8.103-7.667-.262-4.508-.992-9-2.167-13.341-1.175-4.325 1.381-8.794 5.714-9.968 4.27-1.214 8.794 1.381 9.968 5.714 1.476 5.421 2.389 11.032 2.706 16.675.262 4.476-3.167 8.318-7.651 8.572-.149.007-.308.015-.467.015z" fill="#dbeaff"/><path d="m424.121 432.944c-2.214 0-4.429-.905-6.032-2.683-3.024-3.349-6.405-6.397-10.04-9.04s-4.437-7.722-1.794-11.349c2.635-3.635 7.73-4.437 11.349-1.794 4.548 3.31 8.77 7.103 12.548 11.294 3.008 3.333 2.746 8.468-.587 11.476-1.555 1.405-3.5 2.096-5.444 2.096z" fill="#edf4ff"/><path d="m382.184 407.658c-1.071 0-2.159-.206-3.198-.659l-14-6c-4.127-1.77-6.04-6.548-4.27-10.667 1.77-4.135 6.579-6.056 10.667-4.27l14 6c4.127 1.77 6.04 6.548 4.27 10.667-1.318 3.087-4.318 4.929-7.469 4.929z" fill="#dbeaff"/><path d="m336.612 388.142c-1.071 0-2.159-.206-3.198-.659l-7.468-3.198c-2.992-1.278-4.929-4.214-4.929-7.468v-11.151c0-2.564 1.206-4.976 3.262-6.508 2.032-1.524 4.016-3.111 5.937-4.754 3.405-2.913 8.54-2.508 11.46.905 2.913 3.421 2.508 8.548-.905 11.46-1.151.976-2.317 1.944-3.5 2.889v1.802l2.54 1.087c4.127 1.762 6.04 6.54 4.27 10.667-1.318 3.086-4.318 4.928-7.469 4.928z" fill="#edf4ff"/><path d="m354.104 348.729c-1.675 0-3.373-.516-4.825-1.595-3.611-2.667-4.373-7.754-1.698-11.365 2.23-3.016 4.341-6.191 6.278-9.445 2.302-3.857 7.294-5.119 11.143-2.825 3.857 2.302 5.119 7.286 2.825 11.143-2.214 3.714-4.627 7.341-7.183 10.794-1.595 2.15-4.048 3.293-6.54 3.293z" fill="#dbeaff"/><path d="m372.065 313.752c-.817 0-1.651-.119-2.468-.381-4.278-1.365-6.635-5.937-5.278-10.214.778-2.421 1.476-4.873 2.087-7.349.675-2.675 2.651-4.833 5.27-5.722 2.19-.746 4.341-1.659 6.389-2.714 4-2.071 8.905-.468 10.945 3.516 2.048 4 .476 8.897-3.516 10.945-1.444.738-2.921 1.429-4.421 2.056-.397 1.413-.817 2.817-1.262 4.206-1.104 3.451-4.302 5.657-7.746 5.657z" fill="#edf4ff"/><path d="m406.541 275.855c-1.032 0-2.071-.19-3.079-.603-4.151-1.698-6.143-6.444-4.444-10.603 1.595-3.897 2.619-8.016 3.04-12.246l.111-1.246c.278-4.476 4.175-7.81 8.603-7.619 4.476.27 7.889 4.119 7.619 8.603-.04.651-.095 1.294-.167 1.937-.571 5.722-1.968 11.373-4.159 16.73-1.286 3.142-4.325 5.047-7.524 5.047z" fill="#dbeaff"/><path d="m105.403 275.672c-3.222 0-6.27-1.929-7.54-5.095-2.381-5.929-3.81-12.175-4.254-18.572-.302-4.476 3.079-8.357 7.556-8.667 4.389-.127 8.357 3.071 8.667 7.556.317 4.691 1.365 9.278 3.111 13.619 1.675 4.167-.349 8.905-4.508 10.572-1 .397-2.024.587-3.032.587z" fill="#dbeaff"/><path d="m402.287 224.029c-4.492 0-8.127-3.635-8.127-8.127v-12.73c0-1.222-.016-2.437-.048-3.659-.111-4.484 3.437-8.214 7.929-8.325h.206c4.389 0 8.008 3.508 8.119 7.929.032 1.349.048 2.706.048 4.056v12.73c0 4.491-3.635 8.126-8.127 8.126z" fill="#edf4ff"/><path d="m109.713 223.839c-4.492 0-8.127-3.635-8.127-8.127v-12.54c0-1.421.016-2.849.056-4.27.135-4.405 3.746-7.889 8.119-7.889h.246c4.492.135 8.016 3.881 7.889 8.365-.04 1.262-.056 2.532-.056 3.794v12.54c0 4.492-3.635 8.127-8.127 8.127z" fill="#edf4ff"/><path d="m396.517 170.687c-3.532 0-6.778-2.31-7.81-5.865-1.437-4.98-3.191-9.941-5.198-14.754-1.73-4.139.222-8.901 4.365-10.631 4.127-1.698 8.905.226 10.635 4.369 2.246 5.377 4.198 10.925 5.818 16.492 1.246 4.314-1.238 8.822-5.548 10.068-.754.218-1.516.321-2.262.321z" fill="#dbeaff"/><path d="m115.53 170.529c-.746 0-1.508-.107-2.262-.325-4.31-1.246-6.794-5.754-5.548-10.068 1.611-5.556 3.579-11.107 5.841-16.504 1.73-4.151 6.524-6.087 10.635-4.345 4.143 1.734 6.087 6.5 4.349 10.639-2.024 4.818-3.778 9.774-5.206 14.734-1.031 3.555-4.277 5.869-7.809 5.869z" fill="#dbeaff"/><path d="m372.446 122.846c-2.452 0-4.881-1.107-6.476-3.21-3.135-4.123-6.556-8.131-10.159-11.913-3.095-3.246-2.976-8.393.27-11.488 3.254-3.099 8.397-2.976 11.492.274 4.024 4.218 7.833 8.691 11.333 13.294 2.714 3.571 2.024 8.671-1.548 11.385-1.476 1.118-3.198 1.658-4.912 1.658z" fill="#edf4ff"/><path d="m139.674 122.699c-1.714 0-3.444-.54-4.913-1.659-3.571-2.718-4.262-7.818-1.548-11.389 3.508-4.607 7.325-9.079 11.357-13.29 3.103-3.246 8.262-3.353 11.492-.25 3.246 3.103 3.357 8.246.254 11.488-3.611 3.77-7.032 7.77-10.167 11.893-1.602 2.104-4.023 3.207-6.475 3.207z" fill="#edf4ff"/><path d="m346.564 77.603c-3.222 0-6.27-1.929-7.54-5.103-1.881-4.671-4.175-9.234-6.833-13.564-2.349-3.825-1.151-8.829 2.675-11.179 3.841-2.349 8.833-1.155 11.183 2.679 3.135 5.107 5.841 10.492 8.056 16.008 1.675 4.163-.349 8.897-4.508 10.572-.993.397-2.025.587-3.033.587z" fill="#dbeaff"/><path d="m165.515 77.428c-1.008 0-2.04-.19-3.032-.591-4.167-1.671-6.183-6.405-4.508-10.572 2.214-5.516 4.937-10.901 8.095-16.008 2.365-3.814 7.389-5.004 11.183-2.639 3.817 2.357 5 7.365 2.643 11.187-2.667 4.318-4.968 8.865-6.841 13.524-1.27 3.171-4.326 5.099-7.54 5.099z" fill="#dbeaff"/><path d="m314.08 35.476c-1.683 0-3.381-.52-4.841-1.603-4.056-3.016-8.397-5.706-12.897-8-4-2.036-5.595-6.929-3.564-10.929 2.04-4 6.937-5.603 10.929-3.556 5.318 2.702 10.445 5.881 15.23 9.437 3.603 2.679 4.349 7.77 1.675 11.373-1.596 2.143-4.048 3.278-6.532 3.278z" fill="#edf4ff"/><path d="m198.071 35.373c-2.484 0-4.937-1.135-6.532-3.282-2.675-3.603-1.921-8.695 1.683-11.369 4.786-3.556 9.921-6.726 15.262-9.429 4-2.02 8.897-.417 10.921 3.587s.421 8.893-3.587 10.921c-4.524 2.286-8.865 4.964-12.913 7.968-1.453 1.084-3.152 1.604-4.834 1.604z" fill="#edf4ff"/><path d="m264.381 16.606c-.23 0-.46-.008-.69-.028-5.008-.437-10.183-.44-15.191-.016-4.5.444-8.405-2.944-8.778-7.421-.381-4.472 2.944-8.401 7.413-8.778 5.929-.5 12.024-.476 17.921.016 4.476.381 7.794 4.314 7.413 8.786-.358 4.239-3.905 7.441-8.088 7.441z" fill="#dbeaff"/><path d="m140.007 313.966c-3.437 0-6.627-2.19-7.738-5.635-.444-1.389-.873-2.786-1.278-4.198-1.5-.619-2.984-1.31-4.437-2.056-3.992-2.048-5.564-6.945-3.516-10.945 2.048-3.984 6.945-5.564 10.945-3.516 2.056 1.056 4.191 1.952 6.341 2.667 2.643.881 4.651 3.048 5.325 5.746.611 2.468 1.317 4.905 2.095 7.318 1.373 4.27-.976 8.849-5.246 10.23-.824.262-1.666.389-2.491.389z" fill="#edf4ff"/><path d="m157.975 348.832c-2.484 0-4.937-1.135-6.532-3.278-2.556-3.444-4.976-7.064-7.175-10.754-2.302-3.849-1.048-8.841 2.81-11.143 3.841-2.302 8.833-1.048 11.143 2.81 1.929 3.222 4.04 6.381 6.27 9.389 2.675 3.611 1.929 8.698-1.675 11.373-1.46 1.079-3.158 1.603-4.841 1.603z" fill="#dbeaff"/><path d="m175.388 388.142c-3.151 0-6.151-1.841-7.468-4.929-1.77-4.127.143-8.905 4.27-10.667l2.54-1.087v-1.802c-1.19-.952-2.357-1.921-3.5-2.897-3.413-2.921-3.81-8.056-.889-11.46 2.929-3.421 8.064-3.794 11.46-.889 1.913 1.643 3.897 3.23 5.921 4.746 2.056 1.532 3.262 3.944 3.262 6.508v11.151c0 3.254-1.937 6.191-4.929 7.468l-7.468 3.198c-1.04.453-2.127.66-3.199.66z" fill="#edf4ff"/><path d="m69.197 477.658c-.159 0-.325-.008-.484-.016-4.484-.262-7.897-4.111-7.635-8.587.325-5.619 1.246-11.222 2.722-16.651 1.175-4.333 5.706-6.921 9.968-5.714 4.333 1.175 6.889 5.643 5.714 9.968-1.183 4.357-1.913 8.849-2.183 13.349-.253 4.318-3.832 7.651-8.102 7.651z" fill="#dbeaff"/><path d="m87.935 432.872c-1.944 0-3.889-.69-5.444-2.095-3.333-3.008-3.595-8.143-.587-11.476 3.77-4.183 8-7.976 12.572-11.286 3.651-2.643 8.722-1.817 11.349 1.81 2.635 3.635 1.825 8.722-1.81 11.349-3.659 2.651-7.04 5.683-10.048 9.016-1.603 1.777-3.818 2.682-6.032 2.682z" fill="#edf4ff"/><path d="m129.888 407.618c-3.151 0-6.151-1.849-7.468-4.929-1.77-4.127.143-8.905 4.27-10.667l14-5.992c4.095-1.794 8.897.135 10.667 4.27 1.77 4.127-.143 8.905-4.27 10.667l-14 5.992c-1.041.453-2.128.659-3.199.659z" fill="#dbeaff"/><path d="m69.078 512c-4.492 0-8.127-3.635-8.127-8.127 0-4.492 3.635-8.127 8.127-8.127s8.127 3.635 8.127 8.127c0 4.492-3.635 8.127-8.127 8.127z" fill="#edf4ff"/><path d="m385.777 436.432-27.474-11.766c-8.277 13.576-42.172 43.837-84.439 69.761-10.885 6.677-24.841 6.677-35.727 0-42.267-25.924-76.162-56.185-84.439-69.761l-27.474 11.766c-14.946 6.401-24.638 21.094-24.638 37.354v21.961c0 8.977 7.277 16.254 16.254 16.254h276.32c8.976 0 16.254-7.277 16.254-16.254v-21.961c0-16.26-9.691-30.953-24.637-37.354z" fill="#dad8db"/><path d="m232.555 500.984c7.119 4.365 15.278 6.548 23.445 6.548 8.159 0 16.326-2.183 23.445-6.548 41.585-25.508 67.169-58.595 78.858-76.319l-15.205-6.512c-11.556 16.999-35 46.188-72.145 68.973-9.095 5.572-20.826 5.572-29.905 0-37.145-22.785-60.589-51.975-72.145-68.973l-15.205 6.512c11.689 17.724 37.272 50.811 78.857 76.319z" fill="#eceaec"/></g></svg>