<svg id="Capa_1" enable-background="new 0 0 512 512" height="512" viewBox="0 0 512 512" width="512" xmlns="http://www.w3.org/2000/svg"><g><g><path d="m421.161 330.323h-24.774c-4.565 0-8.258-3.698-8.258-8.258s3.694-8.258 8.258-8.258h24.774c4.565 0 8.258 3.698 8.258 8.258s-3.693 8.258-8.258 8.258z" fill="#f5ebcd"/></g><g><path d="m421.161 363.355h-24.774c-4.565 0-8.258-3.698-8.258-8.258s3.694-8.258 8.258-8.258h24.774c4.565 0 8.258 3.698 8.258 8.258s-3.693 8.258-8.258 8.258z" fill="#f5ebcd"/></g><g><path d="m421.161 396.387h-24.774c-4.565 0-8.258-3.698-8.258-8.258s3.694-8.258 8.258-8.258h24.774c4.565 0 8.258 3.698 8.258 8.258s-3.693 8.258-8.258 8.258z" fill="#f5ebcd"/></g><g><path d="m421.161 429.419h-24.774c-4.565 0-8.258-3.698-8.258-8.258s3.694-8.258 8.258-8.258h24.774c4.565 0 8.258 3.698 8.258 8.258s-3.693 8.258-8.258 8.258z" fill="#f5ebcd"/></g><path d="m388.129 272.516-5.879 16.516v24.774l5.879 8.258 16.516-8.258v-24.774c0-9.121-7.394-16.516-16.516-16.516z" fill="#faf5dc"/><path d="m371.613 289.032v24.774l16.516 8.258v-49.548c-9.121 0-16.516 7.394-16.516 16.516z" fill="#f5ebcd"/><path d="m371.353 402.182-75.558-32.359c-9.112-3.902-15.021-12.861-15.021-22.773v-49.76h-82.581v49.758c0 9.913-5.909 18.871-15.021 22.774l-75.557 32.359c-15.187 6.504-25.035 21.435-25.035 37.956v55.347c0 9.122 7.395 16.516 16.516 16.516h280.774c9.122 0 16.516-7.395 16.516-16.516v-55.347c.001-16.521-9.847-31.451-25.033-37.955z" fill="#dad8db"/><path d="m310.426 462.613-47.48-70.82-59.246.606 65.572 97.805c2.54 3.788 7.669 4.8 11.458 2.261l27.437-18.395c3.787-2.539 4.799-7.668 2.259-11.457z" fill="#ff9a9f"/><path d="m297.29 305.548h-95.516c-13.682 0-24.774 11.092-24.774 24.774v49.548c0 9.121 16.876 12.129 62.484 12.129 49.183 0 82.581-18.631 82.581-35.382v-26.296c0-13.681-11.092-24.773-24.775-24.773z" fill="#ff9a9f"/><path d="m198.194 335.579v-30.031h-16.516c-13.091 0-23.811 10.154-24.713 23.016l-.061 16.753v34.554c0 9.121 36.973 16.516 82.581 16.516s82.581-7.395 82.581-16.516v-6.502-10.014-6.737zm41.29 44.292c-9.119 0-17.877-.301-26.067-.85-8.603-.578-15.224-7.846-15.224-16.468v-10.223l113.037 19.199c-14.219 4.981-41.012 8.342-71.746 8.342z" fill="#ff8086"/><path d="m355.091 163.977-207.402-69.111c-14.939 19.479-23.818 43.85-23.818 70.295v41.291h231.226v-41.291c0-.395-.002-.79-.006-1.184z" fill="#785353"/><path d="m342.71 189.936h-12.387c-9.121 0-16.516-7.395-16.516-16.516v-.033-8.225c0-18.243-14.789-33.032-33.032-33.032h-82.581c-6.016 0-11.656 1.608-16.515 4.418l-19.346 82.786c0 50.168 26.981 101.333 77.15 101.333 5.69 0 11.258.875 16.658-.126 42.213-7.823 74.181-44.836 74.18-89.315h11.21c10.8 0 20.641-7.771 21.716-18.516 1.238-12.359-8.433-22.774-20.537-22.774z" fill="#ffe09f"/><path d="m181.677 231.226v-94.681c-9.832 5.722-16.516 16.421-16.516 28.616v8.258c0 9.121-7.395 16.516-16.516 16.516h-11.208c-10.799 0-20.641 7.77-21.717 18.515-1.238 12.358 8.433 22.775 20.538 22.775h12.387v.001c0 50.168 40.669 90.838 90.838 90.838 5.649 0 11.294-.537 16.658-1.524-42.271-7.776-74.464-44.794-74.464-89.314z" fill="#f6d190"/><circle cx="239.484" cy="66.065" fill="#785353" r="66.065"/><path d="m239.484 49.548c-37.414 0-70.664 17.755-91.795 45.317 48.318 43.624 112.41 70.295 182.633 70.295 8.337 0 16.622-.452 24.768-1.185-.633-63.306-52.149-114.427-115.606-114.427z" fill="#966a5b"/><g><path d="m198.194 214.71c-4.565 0-8.258-3.698-8.258-8.258v-8.258c0-4.56 3.694-8.258 8.258-8.258 4.565 0 8.258 3.698 8.258 8.258v8.258c0 4.56-3.694 8.258-8.258 8.258z" fill="#6e4848"/></g><g><path d="m280.774 214.71c-4.565 0-8.258-3.698-8.258-8.258v-8.258c0-4.56 3.694-8.258 8.258-8.258s8.258 3.698 8.258 8.258v8.258c0 4.56-3.693 8.258-8.258 8.258z" fill="#6e4848"/></g><g><path d="m255.992 269.077c-1.669 0-3.355-.504-4.823-1.556-5.742-4.145-17.629-4.145-23.371 0-3.718 2.673-8.871 1.831-11.532-1.875-2.661-3.702-1.823-8.863 1.871-11.528 11.419-8.218 31.274-8.218 42.694 0 3.694 2.665 4.532 7.827 1.871 11.528-1.613 2.241-4.146 3.431-6.71 3.431z" fill="#e2a975"/></g><path d="m404.645 450.517v-136.71h-16.516l-11.379 177.443 11.379 20.75c18.244 0 33.032-14.789 33.032-33.032 0-12.196-6.683-22.729-16.516-28.451z" fill="#ff8086"/><g><path d="m198.194 335.579-41.217-7.014c-.041.581-.073 1.166-.073 1.758v14.994l41.29 7.013z" fill="#e5646e"/></g><path d="m388.129 313.806h-16.516v136.71c-12.003 6.985-19.315 21.141-15.5 36.738 2.855 11.676 12.385 21.103 24.093 23.824 2.69.625 5.341.917 7.923.917z" fill="#e5646e"/></g></svg>