<svg id="Capa_1" enable-background="new 0 0 512 512" height="512" viewBox="0 0 512 512" width="512" xmlns="http://www.w3.org/2000/svg"><g><path d="m437.677 214.71v41.29c0 4.56 3.697 8.258 8.258 8.258h41.29c4.561 0 8.258-3.698 8.258-8.258v-8.258z" fill="#dad8db"/><path d="m462.452 247.742h33.032v-33.032h-82.581v41.29c0 4.561 3.697 8.258 8.258 8.258h24.774c0-9.122 7.395-16.516 16.517-16.516z" fill="#c8c5c9"/><path d="m33.032 115.613h99.097v66.065h-99.097z" fill="#c8c5c9"/><path d="m478.968 165.161h-445.936c-13.682 0-24.774 11.092-24.774 24.774v256c0 4.561 3.697 8.258 8.258 8.258h123.871c4.561 0 8.258-3.697 8.258-8.258v-165.161c0-27.365 22.184-49.548 49.548-49.548h305.548c4.561 0 8.258-3.697 8.258-8.258v-24.774c.001-18.244-14.788-33.033-33.031-33.033z" fill="#eceaec"/><path d="m305.548 41.29h-256l-20.806 33.033v41.29c0 4.56 3.697 8.258 8.258 8.258h103.387c4.561 0 8.258-3.698 8.258-8.258v-41.29h156.903c9.121 0 16.516-7.395 16.516-16.516.001-9.123-7.394-16.517-16.516-16.517z" fill="#eceaec"/><path d="m454.194 322.065c-4.565 0-8.258-3.694-8.258-8.258v-16.517c0-4.565 3.694-8.258 8.258-8.258s8.258 3.694 8.258 8.258v16.516c0 4.565-3.694 8.259-8.258 8.259z" fill="#edf4ff"/><path d="m454.194 421.161c-4.565 0-8.258-3.694-8.258-8.258v-16.516c0-4.565 3.694-8.258 8.258-8.258s8.258 3.694 8.258 8.258v16.516c0 4.565-3.694 8.258-8.258 8.258z" fill="#edf4ff"/><g fill="#dbeaff"><path d="m454.194 371.613c-4.565 0-8.258-3.694-8.258-8.258v-16.516c0-4.565 3.694-8.258 8.258-8.258s8.258 3.694 8.258 8.258v16.516c0 4.564-3.694 8.258-8.258 8.258z"/><path d="m454.194 470.71c-4.565 0-8.258-3.694-8.258-8.258v-16.516c0-4.565 3.694-8.258 8.258-8.258s8.258 3.694 8.258 8.258v16.516c0 4.564-3.694 8.258-8.258 8.258z"/><path d="m488.815 321.984c-4.202 0-7.798-3.194-8.21-7.46l-1.597-16.435c-.444-4.54 2.879-8.581 7.419-9.016 4.605-.379 8.581 2.887 9.016 7.419l1.597 16.435c.444 4.54-2.879 8.581-7.419 9.016-.274.025-.54.041-.806.041z"/><path d="m498.379 420.621c-4.202 0-7.798-3.194-8.21-7.46l-1.589-16.435c-.444-4.54 2.887-8.581 7.419-9.016 4.645-.387 8.581 2.887 9.016 7.419l1.589 16.435c.444 4.54-2.887 8.581-7.419 9.016-.274.025-.54.041-.806.041z"/></g><path d="m493.597 371.306c-4.202 0-7.798-3.194-8.21-7.46l-1.597-16.444c-.444-4.54 2.879-8.581 7.419-9.016 4.629-.411 8.581 2.879 9.016 7.419l1.597 16.444c.444 4.54-2.879 8.581-7.419 9.016-.274.025-.54.041-.806.041z" fill="#edf4ff"/><path d="m503.169 469.935c-4.202 0-7.798-3.194-8.21-7.46l-1.597-16.435c-.444-4.54 2.879-8.581 7.419-9.016 4.605-.419 8.581 2.879 9.016 7.419l1.597 16.435c.444 4.54-2.879 8.581-7.419 9.016-.273.025-.54.041-.806.041z" fill="#edf4ff"/><path d="m419.573 321.984c-.266 0-.532-.016-.806-.04-4.54-.435-7.863-4.476-7.419-9.016l1.597-16.435c.435-4.532 4.427-7.806 9.016-7.419 4.54.435 7.863 4.476 7.419 9.016l-1.597 16.435c-.412 4.265-4.009 7.459-8.21 7.459z" fill="#dbeaff"/><path d="m410.008 420.621c-.266 0-.532-.016-.806-.04-4.532-.435-7.863-4.476-7.419-9.016l1.589-16.435c.435-4.54 4.387-7.815 9.016-7.419 4.532.435 7.863 4.476 7.419 9.016l-1.589 16.435c-.412 4.265-4.008 7.459-8.21 7.459z" fill="#dbeaff"/><path d="m414.79 371.306c-.266 0-.532-.016-.806-.04-4.54-.435-7.863-4.476-7.419-9.016l1.597-16.444c.435-4.54 4.403-7.839 9.016-7.419 4.54.435 7.863 4.476 7.419 9.016l-1.597 16.444c-.411 4.266-4.008 7.459-8.21 7.459z" fill="#edf4ff"/><path d="m405.218 469.935c-.266 0-.532-.016-.806-.04-4.54-.435-7.863-4.476-7.419-9.016l1.597-16.435c.435-4.54 4.435-7.847 9.016-7.419 4.54.435 7.863 4.476 7.419 9.016l-1.597 16.435c-.412 4.266-4.009 7.459-8.21 7.459z" fill="#edf4ff"/><path d="m33.032 421.161v-256h-8.258c-13.682 0-24.774 11.092-24.774 24.774v264.258c0 4.561 3.697 8.258 8.258 8.258h132.129c4.561 0 8.258-3.697 8.258-8.258v-8.258h-90.839c-13.682 0-24.774-11.091-24.774-24.774z" fill="#dad8db"/><path d="m49.548 90.839v-49.549c-18.243 0-33.032 14.789-33.032 33.032v49.548c0 4.561 3.697 8.258 8.258 8.258h115.613c4.561 0 8.258-3.697 8.258-8.258v-8.258h-74.322c-13.683.001-24.775-11.091-24.775-24.773z" fill="#dad8db"/></g></svg>